HIERARCHY
ROOT joint_0
{
	OFFSET 0.000000 0.000000 0.000000
	CHANNELS 6 Xposition Yposition Zposition Zrotation Yrotation Xrotation 
	JOINT joint_1
	{
		OFFSET 7.745728 2.152245 124.869995
		CHANNELS 3 Zrotation Yrotation Xrotation
		JOINT joint_2
		{
			OFFSET -6.359406 2.617477 113.975952
			CHANNELS 3 Zrotation Yrotation Xrotation
			JOINT joint_3
			{
				OFFSET -8.187927 3.340103 113.713013
				CHANNELS 3 Zrotation Yrotation Xrotation
				JOINT joint_4
				{
					OFFSET 2.859222 5.755905 159.680054
					CHANNELS 3 Zrotation Yrotation Xrotation
					JOINT joint_5
					{
						OFFSET 22.724274 2.598469 88.906982
						CHANNELS 3 Zrotation Yrotation Xrotation
						End Site
						{
							OFFSET 0.000000 0.000000 0.000000
						}
					}
				}
				JOINT joint_6
				{
					OFFSET 2.312134 -31.513222 90.723022
					CHANNELS 3 Zrotation Yrotation Xrotation
					JOINT joint_7
					{
						OFFSET -0.486389 -150.827950 -17.660034
						CHANNELS 3 Zrotation Yrotation Xrotation
						JOINT joint_8
						{
							OFFSET 15.633850 -16.961029 -297.395020
							CHANNELS 3 Zrotation Yrotation Xrotation
							JOINT joint_9
							{
								OFFSET 5.600098 1.609863 -262.782959
								CHANNELS 3 Zrotation Yrotation Xrotation
								End Site
								{
									OFFSET 0.000000 0.000000 0.000000
								}
							}
						}
					}
				}
				JOINT joint_10
				{
					OFFSET 1.012756 37.963039 88.243042
					CHANNELS 3 Zrotation Yrotation Xrotation
					JOINT joint_11
					{
						OFFSET -2.397430 150.471996 -20.492065
						CHANNELS 3 Zrotation Yrotation Xrotation
						JOINT joint_12
						{
							OFFSET -10.575745 12.779427 -297.765015
							CHANNELS 3 Zrotation Yrotation Xrotation
							JOINT joint_13
							{
								OFFSET 196.311081 2.689713 -176.286011
								CHANNELS 3 Zrotation Yrotation Xrotation
								End Site
								{
									OFFSET 0.000000 0.000000 0.000000
								}
							}
						}
					}
				}
			}
		}
	}
	JOINT joint_14
	{
		OFFSET 1.244965 -96.891136 -118.152039
		CHANNELS 3 Zrotation Yrotation Xrotation
		JOINT joint_15
		{
			OFFSET -2.982971 -16.401871 -443.439026
			CHANNELS 3 Zrotation Yrotation Xrotation
			JOINT joint_16
			{
				OFFSET -42.052063 -15.386002 -460.966980
				CHANNELS 3 Zrotation Yrotation Xrotation
				JOINT joint_17
				{
					OFFSET 177.916595 102.818184 -88.655001
					CHANNELS 3 Zrotation Yrotation Xrotation
					End Site
					{
						OFFSET 0.000000 0.000000 0.000000
					}
				}
			}
		}
	}
	JOINT joint_18
	{
		OFFSET 1.788635 96.476997 -118.463074
		CHANNELS 3 Zrotation Yrotation Xrotation
		JOINT joint_19
		{
			OFFSET -9.555542 8.093691 -443.574951
			CHANNELS 3 Zrotation Yrotation Xrotation
			JOINT joint_20
			{
				OFFSET -48.427551 9.415819 -460.500023
				CHANNELS 3 Zrotation Yrotation Xrotation
				JOINT joint_21
				{
					OFFSET 204.978119 20.223980 -87.523996
					CHANNELS 3 Zrotation Yrotation Xrotation
					End Site
					{
						OFFSET 0.000000 0.000000 0.000000
					}
				}
			}
		}
	}
}
MOTION
Frames: 10
Frame Time: 0.016667
254.612305 24.865051 1149.671997 -6.349551 0.257568 -5.864339 0.240638 2.923505 -13.972850 1.737755 -0.410447 2.082135 1.296147 0.207199 -2.172172 1.965910 3.452618 -5.273279 0.000000 0.000000 0.000000 8.671654 7.265649 -6.783741 -2.740500 8.258462 -4.684379 -0.703855 -25.829105 27.365765 0.000000 0.000000 0.000000 2.646790 -3.806364 0.372359 1.147352 -3.652771 17.880601 1.810488 -13.945429 2.045655 0.000000 0.000000 0.000000 -6.725424 5.123934 -1.187423 -6.470269 18.883962 -2.660374 -8.688185 8.539452 -8.627125 0.000000 0.000000 0.000000 1.622667 -33.653210 27.984910 -3.292496 36.773337 -8.293368 -6.624021 8.674259 -3.622759 0.000000 0.000000 0.000000 
267.557709 35.544975 1147.265015 -7.440591 0.766604 -6.082647 0.412367 3.050346 -13.681141 1.875054 -0.443681 2.038990 1.433784 0.240856 -2.183419 2.058109 3.803848 -5.467101 0.000000 0.000000 0.000000 8.069865 7.545245 -6.609726 -2.165408 8.445134 -3.857018 -0.316721 -26.316734 24.725336 0.000000 0.000000 0.000000 3.010493 -3.964239 0.064737 0.560919 -3.968815 18.383560 1.253326 -14.124674 1.532488 0.000000 0.000000 0.000000 -6.570999 6.037099 -1.715141 -6.152558 16.852787 -2.739176 -7.962918 8.576124 -8.325821 0.000000 0.000000 0.000000 1.550364 -33.439720 27.976164 -3.667526 32.934725 -7.761340 -7.302075 8.987749 -3.880435 0.000000 0.000000 0.000000 
280.895782 47.531502 1144.714966 -8.510681 1.551761 -6.383310 0.649838 2.753792 -13.255896 1.954350 -0.404519 2.008269 1.510283 0.192886 -2.155417 2.140954 4.259837 -5.636658 0.000000 0.000000 0.000000 7.480845 7.776793 -6.360430 -1.667520 8.581199 -3.238128 0.004503 -26.318802 22.526994 0.000000 0.000000 0.000000 3.645678 -4.037865 -0.146649 -0.166513 -4.275596 18.246639 0.549950 -13.613944 0.878651 0.000000 0.000000 0.000000 -6.254248 7.197787 -2.176211 -5.668241 13.777025 -2.831209 -6.915103 8.796306 -8.004227 0.000000 0.000000 0.000000 1.116504 -33.060810 27.894887 -4.456951 28.850217 -7.419831 -8.287477 9.925598 -4.332438 0.000000 0.000000 0.000000 
294.356232 60.544270 1142.103027 -9.667898 2.376194 -6.660569 0.896304 2.489857 -12.899518 2.062260 -0.370767 2.026037 1.613536 0.163885 -2.121601 2.218392 4.587484 -5.797512 0.000000 0.000000 0.000000 6.936651 7.867909 -6.129887 -1.259233 8.597594 -2.750700 0.263579 -26.138355 20.625863 0.000000 0.000000 0.000000 4.163722 -4.064169 -0.329087 -0.699695 -4.490728 17.731507 0.014102 -13.078201 0.375498 0.000000 0.000000 0.000000 -5.801217 8.066617 -2.703303 -5.173818 10.959458 -2.968316 -6.028628 9.288911 -7.909382 0.000000 0.000000 0.000000 0.489015 -32.483705 27.562395 -5.445626 25.292213 -7.199812 -9.325649 11.115764 -4.852552 0.000000 0.000000 0.000000 
307.673706 74.552879 1139.584961 -10.927567 3.100370 -6.930686 1.111829 2.590306 -12.568442 2.224478 -0.399471 2.013613 1.778587 0.218281 -2.093423 2.289555 4.563472 -5.953720 0.000000 0.000000 0.000000 6.435939 7.718311 -6.017040 -0.945396 8.406963 -2.350146 0.472033 -25.919740 18.994968 0.000000 0.000000 0.000000 4.294904 -4.033641 -0.497508 -0.718449 -4.505464 16.826631 -0.070908 -13.090963 0.286373 0.000000 0.000000 0.000000 -5.300496 8.282579 -3.240245 -4.783456 9.268752 -3.263444 -5.495412 10.004982 -8.088792 0.000000 0.000000 0.000000 -0.431707 -31.784619 27.008642 -6.778042 22.817868 -7.435386 -10.823958 12.680638 -5.631843 0.000000 0.000000 0.000000 
320.954681 89.648529 1137.134033 -12.291386 3.776430 -7.258364 1.336264 2.937132 -12.157533 2.422297 -0.478830 1.928696 1.989883 0.307732 -2.048783 2.347497 4.259921 -6.084403 0.000000 0.000000 0.000000 5.954307 7.365610 -6.034630 -0.708311 8.038990 -1.998136 0.644662 -25.565791 17.671520 0.000000 0.000000 0.000000 4.186489 -3.944786 -0.633473 -0.370450 -4.362536 15.440101 0.168630 -13.348497 0.492885 0.000000 0.000000 0.000000 -4.741163 8.083487 -3.710856 -4.399939 8.196417 -3.727422 -5.098542 10.922959 -8.439769 0.000000 0.000000 0.000000 -1.744097 -30.955859 26.350600 -8.615118 20.905083 -8.205034 -13.014368 14.799460 -6.819635 0.000000 0.000000 0.000000 
334.550598 105.260086 1134.271973 -13.578136 4.388073 -7.593829 1.535964 3.477469 -11.744820 2.595378 -0.586734 1.832990 2.176148 0.429087 -2.015053 2.395868 3.928325 -6.179225 0.000000 0.000000 0.000000 5.581953 6.964968 -6.036639 -0.532574 7.641744 -1.662751 0.778796 -25.241272 16.485597 0.000000 0.000000 0.000000 3.892552 -3.951645 -0.842196 -0.031794 -4.283282 14.245193 0.438373 -13.253068 0.716568 0.000000 0.000000 0.000000 -4.268948 7.453924 -4.217168 -4.133490 7.972404 -4.193950 -4.896384 11.900951 -8.913352 0.000000 0.000000 0.000000 -2.514873 -30.387093 25.170879 -9.463192 19.892452 -8.456449 -13.965416 15.805660 -7.413224 0.000000 0.000000 0.000000 
348.727570 121.027649 1130.525024 -14.601272 4.988984 -7.870227 1.711292 4.158904 -11.436218 2.682100 -0.679499 1.814861 2.253670 0.609773 -2.023394 2.446548 3.740941 -6.249751 0.000000 0.000000 0.000000 5.351828 6.631539 -5.951576 -0.399065 7.324710 -1.245612 0.875446 -25.151995 15.252547 0.000000 0.000000 0.000000 3.406198 -4.189487 -1.127597 0.064101 -4.440764 13.683767 0.565283 -12.405555 0.791250 0.000000 0.000000 0.000000 -4.014451 6.269533 -4.863737 -4.108984 8.887192 -4.497472 -4.966136 12.899072 -9.533137 0.000000 0.000000 0.000000 -1.853639 -30.390948 22.911263 -7.751994 20.513243 -7.361920 -11.762770 14.004171 -6.315318 0.000000 0.000000 0.000000 
363.352570 137.174179 1126.068970 -15.634799 5.460192 -8.145027 1.998827 5.173073 -11.156983 2.758059 -0.844329 1.818944 2.286168 0.833263 -2.059529 2.494483 3.586806 -6.289826 0.000000 0.000000 0.000000 5.217862 6.307444 -5.858570 -0.305040 7.030156 -0.732292 0.944407 -25.221436 14.028932 0.000000 0.000000 0.000000 2.703933 -4.605138 -1.404732 0.047055 -4.750506 13.471237 0.651005 -11.024438 0.816524 0.000000 0.000000 0.000000 -3.885465 4.595399 -5.576587 -4.185903 10.829579 -4.782300 -5.229618 14.056189 -10.337953 0.000000 0.000000 0.000000 0.011749 -30.405549 19.796968 -4.148237 22.040159 -5.440806 -7.364971 9.736641 -4.020815 0.000000 0.000000 0.000000 
378.264160 153.579483 1121.640015 -16.655632 5.772810 -8.385718 2.312411 6.267119 -10.860077 2.752616 -1.029161 1.765435 2.219756 0.998711 -2.077799 2.517262 3.445397 -6.264134 0.000000 0.000000 0.000000 5.378290 5.924340 -5.617333 -0.292019 6.690737 -0.544105 0.971344 -24.998582 13.119380 0.000000 0.000000 0.000000 1.939597 -5.042054 -1.701804 -0.060254 -5.073953 13.452129 0.674832 -9.334898 0.785079 0.000000 0.000000 0.000000 -3.885473 2.696567 -6.217775 -4.289865 13.249093 -5.394540 -5.780250 15.194542 -11.234703 0.000000 0.000000 0.000000 1.767316 -30.368938 16.889017 -1.053460 23.604841 -3.566758 -3.716211 5.205202 -2.046560 0.000000 0.000000 0.000000 
